<?xml version="1.0" encoding="UTF-8"?>
<svg version="1.1" xmlns="http://www.w3.org/2000/svg" width="32" height="32">
<path d="M0 0 C4.8846525 2.26787438 7.73212562 5.1153475 10 10 C10.75381535 15.5997712 10.77303575 20.33499991 8.375 25.5 C3.80134327 30.3143755 0.6912538 32.25156236 -6 32.5 C-12.6912538 32.25156236 -15.80134327 30.3143755 -20.375 25.5 C-22.77303575 20.33499991 -22.75381535 15.5997712 -22 10 C-17.52212837 0.3553534 -9.85292056 -1.32635469 0 0 Z " fill="#635A5B" transform="translate(22,0)"/>
<path d="M0 0 C4.8846525 2.26787438 7.73212562 5.1153475 10 10 C10.75381535 15.5997712 10.77303575 20.33499991 8.375 25.5 C3.80134327 30.3143755 0.6912538 32.25156236 -6 32.5 C-12.6912538 32.25156236 -15.80134327 30.3143755 -20.375 25.5 C-22.77303575 20.33499991 -22.75381535 15.5997712 -22 10 C-17.52212837 0.3553534 -9.85292056 -1.32635469 0 0 Z M-7 10 C-7 10.66 -7 11.32 -7 12 C-7.68707031 12.06058594 -8.37414063 12.12117187 -9.08203125 12.18359375 C-10.43361328 12.30927734 -10.43361328 12.30927734 -11.8125 12.4375 C-12.70582031 12.51871094 -13.59914063 12.59992187 -14.51953125 12.68359375 C-17.12743559 12.93489767 -17.12743559 12.93489767 -20 14 C-19.67 15.65 -19.34 17.3 -19 19 C-19.66 19 -20.32 19 -21 19 C-19.67761712 24.68624639 -17.55651636 26.67754016 -13 30 C-8.82572007 32.08713996 -3.26355982 31.73356105 1.109375 30.31640625 C5.43531288 28.08873311 7.33972445 25.49251032 9 21 C9 20.34 9 19.68 9 19 C6.36 18.67 3.72 18.34 1 18 C1.04125 17.05125 1.0825 16.1025 1.125 15.125 C1.34973818 11.89755144 1.34973818 11.89755144 -1 10 C-4.08347826 9.83318891 -4.08347826 9.83318891 -7 10 Z " fill="#EC3F2E" transform="translate(22,0)"/>
<path d="M0 0 C0.66 0.66 1.32 1.32 2 2 C4.54190002 2.2500773 4.54190002 2.2500773 7 2 C7.33 1.67 7.66 1.34 8 1 C10.69082872 1.17635452 13.32851446 1.61835921 16 2 C15.4375 4.8125 15.4375 4.8125 14 8 C9.27180006 10.99131016 5.58088025 11.44541629 0.08203125 10.57421875 C-3.04270906 9.71242358 -4.8233125 8.37456819 -7 6 C-8.3125 3.25 -8.3125 3.25 -9 1 C-5.98675805 -0.50662097 -3.31713623 -0.17770373 0 0 Z " fill="#FAFAFA" transform="translate(15,17)"/>
<path d="M0 0 C4.8846525 2.26787438 7.73212562 5.1153475 10 10 C10.75381535 15.5997712 10.77303575 20.33499991 8.375 25.5 C3.80134327 30.3143755 0.6912538 32.25156236 -6 32.5 C-12.6912538 32.25156236 -15.80134327 30.3143755 -20.375 25.5 C-22.77303575 20.33499991 -22.75381535 15.5997712 -22 10 C-17.52212837 0.3553534 -9.85292056 -1.32635469 0 0 Z M-19.4375 7.875 C-21.27467085 11.5493417 -21.14649327 13.11956124 -20 17 C-19.67 17.66 -19.34 18.32 -19 19 C-19.66 19 -20.32 19 -21 19 C-19.67761712 24.68624639 -17.55651636 26.67754016 -13 30 C-8.82572007 32.08713996 -3.26355982 31.73356105 1.109375 30.31640625 C5.43531288 28.08873311 7.33972445 25.49251032 9 21 C9 20.34 9 19.68 9 19 C6.36 18.67 3.72 18.34 1 18 C1.04125 17.05125 1.0825 16.1025 1.125 15.125 C1.34973818 11.89755144 1.34973818 11.89755144 -1 10 C2 11 2 11 3 13 C4.97888961 13.72693904 6.97954558 14.39816251 9 15 C8.61104749 9.55466487 6.7851047 6.87313039 3 3 C-5.26562428 -2.09453572 -13.56084864 0.94356506 -19.4375 7.875 Z " fill="#533C3C" transform="translate(22,0)"/>
<path d="M0 0 C0.61875 0.969375 1.2375 1.93875 1.875 2.9375 C4.2259415 6.32562157 5.01447607 7.20289521 9 8 C13.18450742 7.85239833 17.02467719 7.3251076 21 6 C21 6.66 21 7.32 21 8 C15.37685826 11.91175078 10.84063819 13.10807032 4 12 C-0.87696271 9.65183277 -3.35351261 6.68224693 -6 2 C-6 1.34 -6 0.68 -6 0 C-3 -1 -3 -1 0 0 Z " fill="#9D9A9A" transform="translate(7,19)"/>
<path d="M0 0 C0.66 0 1.32 0 2 0 C2.33 1.32 2.66 2.64 3 4 C2.34 4 1.68 4 1 4 C4.66577504 10.90289693 4.66577504 10.90289693 11 15 C16.88020247 15.68035401 21.073041 15.54125178 26 12 C26.66 12.33 27.32 12.66 28 13 C23.20769169 17.25982961 19.18251004 17.6181625 12.84375 17.3828125 C7.48711579 16.66172713 5.00176637 14.18630228 1.625 10.1875 C-0.2504825 6.50866894 -0.32596702 4.0745878 0 0 Z " fill="#3F3C3E" transform="translate(0,15)"/>
<path d="M0 0 C1.98 0 3.96 0 6 0 C6.226875 0.639375 6.45375 1.27875 6.6875 1.9375 C7.85250896 4.27193661 7.85250896 4.27193661 10.625 4.75 C11.40875 4.8325 12.1925 4.915 13 5 C13.33 6.65 13.66 8.3 14 10 C11.36 9.67 8.72 9.34 6 9 C5.7525 7.88625 5.505 6.7725 5.25 5.625 C4.38994661 1.95384802 4.38994661 1.95384802 1.875 0.5625 C1.25625 0.376875 0.6375 0.19125 0 0 Z " fill="#5F5656" transform="translate(17,9)"/>
<path d="M0 0 C2.625 0.375 2.625 0.375 5 1 C4.42655063 3.86724686 4.1385485 4.8614515 2 7 C-0.625 7.125 -0.625 7.125 -3 7 C-2.25 2.25 -2.25 2.25 0 0 Z " fill="#FCF0EF" transform="translate(7,3)"/>
<path d="M0 0 C1.67542976 0.28604898 3.34385343 0.61781233 5 1 C4.67 2.65 4.34 4.3 4 6 C3.01 6.33 2.02 6.66 1 7 C0.34 6.67 -0.32 6.34 -1 6 C-1.042721 4.33388095 -1.04063832 2.66617115 -1 1 C-0.67 0.67 -0.34 0.34 0 0 Z " fill="#DDDCDC" transform="translate(18,11)"/>
<path d="M0 0 C0.33 0.99 0.66 1.98 1 3 C0 4 0 4 -2.4375 4.25 C-3.283125 4.1675 -4.12875 4.085 -5 4 C-5.66 3.01 -6.32 2.02 -7 1 C-5.5459375 1.0309375 -5.5459375 1.0309375 -4.0625 1.0625 C-1.12534105 1.35618499 -1.12534105 1.35618499 0 0 Z " fill="#676668" transform="translate(22,16)"/>
</svg>
